# xmcd
#
# Track frame offsets: 
#        150
#        13637
#        27761
#        39649
#        53520
#        65242
#        78125
#        89497
#        101708
#        113256
#        126250
#        136695
#        146913
#        158968
#        171584
#        182845
#        194381
#        205376
#        217972
#        230815
#
# Disc length: 3256 seconds
#
# Revision: 0
# Processed by: cddbd v1.5.2PL0 Copyright (c) Steve Scherf et al.
# Submitted via: ExactAudioCopy v0.99pb4
#
DISCID=1f0cb614
DTITLE=Ray Charles - The Classic Blues Sessions
DYEAR=2007
DGENRE=Blues
TTITLE0=I'm Going Down The River
TTITLE1=Someday
TTITLE2=Can't You See My Darling
TTITLE3=This Love Of Mine
TTITLE4=If I Gave You My Love
TTITLE5=Baby Won't You Please Come Home
TTITLE6=She's On The Ball
TTITLE7=Honey Honey
TTITLE8=Ray Charles Blues
TTITLE9=Don't Put All Your Dreams In One Basket
TTITLE10=Ain't That Fine
TTITLE11=Sittin' On Top Of The World
TTITLE12=I've Had My Fun (Going Down Slow)
TTITLE13=You'll Never Miss Your Water (Til The Well Runs Dry)
TTITLE14=A Sentimental Blues
TTITLE15=How Long, How Long Blues
TTITLE16=Let's Have A Ball
TTITLE17=Rockin' Chair Blues
TTITLE18=Can Anyone Ask For Me
TTITLE19=Alone In The City
EXTD=
EXTT0=
EXTT1=
EXTT2=
EXTT3=
EXTT4=
EXTT5=
EXTT6=
EXTT7=
EXTT8=
EXTT9=
EXTT10=
EXTT11=
EXTT12=
EXTT13=
EXTT14=
EXTT15=
EXTT16=
EXTT17=
EXTT18=
EXTT19=
PLAYORDER=
